<svg width="112" height="20" viewBox="0 0 112 20" fill="none" xmlns="http://www.w3.org/2000/svg">
<mask id="mask0" mask-type="alpha" maskUnits="userSpaceOnUse" x="0" y="5" width="6" height="15">
<path fill-rule="evenodd" clip-rule="evenodd" d="M0 5.53711H5.59126V19.9997H0V5.53711Z" fill="white"/>
</mask>
<g mask="url(#mask0)">
<path fill-rule="evenodd" clip-rule="evenodd" d="M5.5913 5.67946C4.67746 5.7982 4.71877 7.59786 4.59123 9.09931L3.85328 16.7695C3.66447 18.7358 1.93882 20.1746 0 19.9825L1.13464 8.18673C1.28993 6.57374 2.70544 5.39368 4.29543 5.55122L5.5913 5.67946Z" fill="#F2B81A"/>
</g>
<mask id="mask1" mask-type="alpha" maskUnits="userSpaceOnUse" x="4" y="5" width="12" height="5">
<path fill-rule="evenodd" clip-rule="evenodd" d="M5.59284 5.67974C4.67906 5.79848 4.72037 7.59814 4.59277 9.09959V9.09959L12.156 9.84849C14.0544 10.0362 15.7431 8.62796 15.9287 6.70315V6.70315L15.9286 6.70265L5.59339 5.67969L5.59284 5.67974Z" fill="white"/>
</mask>
<g mask="url(#mask1)">
<path fill-rule="evenodd" clip-rule="evenodd" d="M5.59284 5.67974C4.67906 5.79848 4.72037 7.59814 4.59277 9.09959V9.09959L12.156 9.84849C14.0544 10.0362 15.7431 8.62796 15.9287 6.70315V6.70315L15.9286 6.70265L5.59339 5.67969L5.59284 5.67974Z" fill="url(#paint0_linear)"/>
</g>
<mask id="mask2" mask-type="alpha" maskUnits="userSpaceOnUse" x="11" y="0" width="12" height="5">
<path fill-rule="evenodd" clip-rule="evenodd" d="M12.3845 0.17486C11.446 0.296802 11.4884 2.14511 11.3574 3.68713V3.68713L19.125 4.45626C21.0746 4.64896 22.809 3.20273 22.9996 1.22601V1.22601L22.9995 1.22546L12.385 0.174805L12.3845 0.17486Z" fill="white"/>
</mask>
<g mask="url(#mask2)">
<path fill-rule="evenodd" clip-rule="evenodd" d="M12.3845 0.17486C11.446 0.296802 11.4884 2.14511 11.3574 3.68713V3.68713L19.125 4.45626C21.0746 4.64896 22.809 3.20273 22.9996 1.22601V1.22601L22.9995 1.22546L12.385 0.174805L12.3845 0.17486Z" fill="url(#paint1_linear)"/>
</g>
<mask id="mask3" mask-type="alpha" maskUnits="userSpaceOnUse" x="6" y="0" width="7" height="15">
<path fill-rule="evenodd" clip-rule="evenodd" d="M6.64355 0H12.4008V14.8818H6.64355V0Z" fill="white"/>
</mask>
<g mask="url(#mask3)">
<path fill-rule="evenodd" clip-rule="evenodd" d="M12.4008 0.141023C11.4474 0.296518 11.4898 2.14483 11.3587 3.68685L10.6009 11.5643C10.407 13.5837 8.6347 15.0613 6.64355 14.8642L7.80878 2.74962C7.96826 1.09307 9.42204 -0.118892 11.0699 0.00929655L12.4008 0.141023Z" fill="#00B7B1"/>
</g>
<path d="M39.6808 14.8272C39.6927 16.3849 38.4866 17.703 36.8766 17.8913C36.3954 17.9483 35.9083 17.9769 35.4211 17.9826C33.2051 18.0054 31.4169 17.3549 30.0683 16.0254C28.7197 14.6959 28.0306 12.9385 28.0009 10.7531C27.9712 8.40795 28.7019 6.50216 30.1871 5.03572C31.6724 3.56929 33.5616 2.82751 35.8548 2.80469C36.1043 2.80469 36.3479 2.80469 36.5855 2.8161C38.2431 2.87887 39.5501 4.19124 39.5679 5.7832C38.5282 5.2069 37.346 4.9159 36.1459 4.93872C34.4884 4.95584 33.1576 5.48079 32.1417 6.50786C31.1258 7.53493 30.6327 8.89866 30.6505 10.599C30.6684 12.2138 31.1615 13.4977 32.1358 14.4449C33.1041 15.3921 34.3696 15.8599 35.938 15.8428C37.3816 15.8371 38.6292 15.4948 39.6808 14.8272Z" fill="#213043"/>
<path d="M50.6232 17.7543H48.223V16.1167H48.1815C47.427 17.372 46.3219 17.9996 44.8664 17.9996C43.7911 17.9996 42.9534 17.72 42.3474 17.1609C41.7415 16.6017 41.4385 15.8599 41.4385 14.9412C41.4385 12.9613 42.6267 11.8087 44.9971 11.4834L48.2349 11.0441C48.2349 9.5491 47.4982 8.80161 46.019 8.80161C44.7179 8.80161 43.5475 9.22956 42.5019 10.0912C42.5019 8.65326 43.5594 7.37512 45.0328 7.14118C45.514 7.067 46.0011 7.02706 46.4883 7.03276C49.2449 7.03276 50.6232 8.33372 50.6232 10.9414V17.7543ZM48.2409 12.6075L45.9477 12.9156C45.2347 13.0069 44.7001 13.1724 44.3436 13.412C43.9871 13.6517 43.8089 14.0796 43.803 14.6845C43.7911 15.101 43.9693 15.5004 44.2961 15.7743C44.6288 16.0596 45.0684 16.1965 45.6209 16.1965C46.3754 16.1965 46.9992 15.9398 47.4923 15.4319C47.9854 14.9241 48.2349 14.285 48.2349 13.5147V12.6075H48.2409Z" fill="#213043"/>
<path d="M52.959 15.2261C53.8798 15.8995 54.9017 16.2418 56.0186 16.2418C57.5098 16.2418 58.2583 15.8196 58.2583 14.9751C58.2643 14.7583 58.1989 14.5414 58.0682 14.3645C57.9256 14.1877 57.7533 14.0336 57.5513 13.9195C57.3078 13.7768 57.0523 13.6627 56.785 13.5714C56.4879 13.4687 56.1612 13.3546 55.7988 13.2234C55.3829 13.0693 54.9789 12.8867 54.5868 12.6813C54.2541 12.5101 53.9511 12.2933 53.6897 12.0308C53.4521 11.7912 53.2739 11.5116 53.1491 11.2091C53.0243 10.8668 52.959 10.5016 52.9649 10.1364C52.953 9.66854 53.0837 9.20065 53.3392 8.80123C53.5947 8.41322 53.9392 8.07657 54.3432 7.83121C54.7829 7.56303 55.2641 7.35762 55.7691 7.23779C56.3097 7.10656 56.8622 7.03809 57.4206 7.03809C57.4741 7.03809 57.5276 7.03809 57.5811 7.03809C59.0009 7.06091 60.1297 8.19069 60.1297 9.55442C59.3633 9.04659 58.4841 8.79552 57.486 8.79552C57.2008 8.78982 56.9157 8.82405 56.6424 8.88682C56.4166 8.93817 56.1968 9.02376 55.9948 9.14359C55.8285 9.24059 55.6859 9.37753 55.5789 9.5373C55.478 9.69136 55.4304 9.86254 55.4304 10.0451C55.4245 10.2448 55.478 10.4445 55.5789 10.6157C55.6918 10.7869 55.8403 10.9296 56.0186 11.0323C56.2384 11.1635 56.476 11.2719 56.7196 11.3575C56.9929 11.4545 57.3078 11.5629 57.6642 11.677C58.092 11.8425 58.5138 12.0308 58.9296 12.2419C59.2742 12.4131 59.601 12.6356 59.8861 12.8924C60.1475 13.1321 60.3555 13.4174 60.4981 13.7312C60.6406 14.0507 60.7119 14.4273 60.7119 14.861C60.7119 15.3916 60.5812 15.8595 60.3258 16.2532C60.0703 16.6526 59.7198 16.9893 59.3039 17.2346C58.8465 17.5028 58.3474 17.7025 57.8306 17.8109C57.2543 17.9422 56.6602 18.005 56.0661 17.9992C55.9651 17.9992 55.8701 17.9992 55.775 17.9935C54.2066 17.9536 52.959 16.7268 52.959 15.2261Z" fill="#213043"/>
<path d="M72.7484 17.7536C71.3819 17.7536 70.2769 16.6923 70.2769 15.3799V12.0248C70.2769 9.94786 69.5581 8.91508 68.1144 8.91508C67.3896 8.91508 66.7777 9.2175 66.2787 9.81662C65.7796 10.4157 65.5301 11.1861 65.5301 12.1161V17.7536H63.0527V4.61849C63.0527 3.30041 64.1637 2.2334 65.5361 2.2334V9.01208H65.5776C66.4034 7.6883 67.5797 7.02641 69.1184 7.02641C71.5423 7.02641 72.7543 8.44719 72.7543 11.2945V17.7536H72.7484Z" fill="#213043"/>
<path d="M81.9269 4.16827C81.5764 3.97997 81.1843 3.88297 80.7863 3.89438C79.5862 3.89438 78.9861 4.54486 78.9861 5.85153V7.27231H81.5229C81.5229 8.29938 80.6556 9.13246 79.5862 9.13246H78.998V17.7485H76.5266V9.13246H74.6611V9.06398C74.6611 8.07685 75.4988 7.27231 76.5266 7.27231V5.57193C76.5266 4.46498 76.9009 3.59767 77.6554 2.9586C78.4099 2.31953 79.3485 2 80.4773 2C81.0892 2 81.5705 2.06277 81.9269 2.194V4.16827Z" fill="#213043"/>
<path d="M89.6084 9.532C89.3114 9.30376 88.8777 9.19535 88.3193 9.19535C87.5885 9.19535 86.9766 9.51488 86.4835 10.1482C85.9963 10.7816 85.7468 11.6489 85.7468 12.7388V17.7543H83.2754V9.64612C83.2754 8.33374 84.3804 7.27244 85.7468 7.27244V9.42929H85.7884C86.032 8.69322 86.4003 8.11692 86.8994 7.70609C87.3984 7.29526 87.9628 7.08984 88.5807 7.08984C89.0262 7.08984 89.3708 7.15261 89.6025 7.28385V9.532H89.6084Z" fill="#213043"/>
<path d="M100.403 13.1554H92.965C92.9947 14.1254 93.3036 14.8729 93.8977 15.3978C94.4918 15.9228 95.3057 16.1853 96.3454 16.1853C97.5098 16.1853 98.5792 15.8486 99.5535 15.181V17.0925C98.5614 17.6916 97.2425 17.9941 95.6087 17.9941C94.0047 17.9941 92.7452 17.5205 91.8303 16.5676C90.9154 15.6147 90.4639 14.2795 90.4639 12.5506C90.4639 10.9187 90.9688 9.58917 91.9729 8.5621C92.9769 7.53502 94.2245 7.02148 95.7157 7.02148C97.2068 7.02148 98.3653 7.48367 99.1792 8.40233C99.9932 9.32099 100.403 10.6048 100.403 12.2424V13.1554ZM98.0148 11.4778C98.0089 10.6277 97.795 9.96006 97.3851 9.48646C96.9752 9.01287 96.4048 8.77322 95.68 8.77322C94.9968 8.7618 94.3374 9.03569 93.874 9.5207C93.3809 10.0171 93.0779 10.6733 92.965 11.4778H98.0148Z" fill="#213043"/>
<path d="M112 13.1554H104.562C104.591 14.1254 104.9 14.8729 105.494 15.3978C106.089 15.9228 106.903 16.1853 107.942 16.1853C109.107 16.1853 110.176 15.8486 111.15 15.181V17.0925C110.158 17.6916 108.839 17.9941 107.205 17.9941C105.601 17.9941 104.342 17.5205 103.427 16.5676C102.512 15.6147 102.055 14.2795 102.055 12.5506C102.055 10.9187 102.56 9.58917 103.564 8.5621C104.568 7.53502 105.815 7.02148 107.306 7.02148C108.798 7.02148 109.95 7.48367 110.77 8.40233C111.59 9.32099 111.994 10.6048 111.994 12.2424L112 13.1554ZM109.612 11.4778C109.606 10.6219 109.398 9.96006 108.982 9.48646C108.572 9.01287 108.002 8.77322 107.277 8.77322C106.594 8.7618 105.934 9.03569 105.471 9.5207C104.978 10.0171 104.675 10.6733 104.562 11.4778H109.612Z" fill="#213043"/>
<defs>
<linearGradient id="paint0_linear" x1="3.93717" y1="6.45268" x2="4.51674" y2="8.03351" gradientUnits="userSpaceOnUse">
<stop stop-color="#F08221"/>
<stop offset="1" stop-color="#F2B81A"/>
</linearGradient>
<linearGradient id="paint1_linear" x1="7.08385" y1="4.06102" x2="17.4745" y2="6.69904" gradientUnits="userSpaceOnUse">
<stop stop-color="#215E70"/>
<stop offset="1" stop-color="#00B6B1"/>
</linearGradient>
</defs>
</svg>
